<?xml version="1.0" encoding="UTF-8"?> <svg xmlns="http://www.w3.org/2000/svg" xmlns:xlink="http://www.w3.org/1999/xlink" version="1.1" id="Layer_1" x="0px" y="0px" viewBox="0 0 3600 3600" style="enable-background:new 0 0 3600 3600;" xml:space="preserve"> <style type="text/css"> .st0{fill:#FF003D;} .st1{fill:#00C483;} </style> <g> <path d="M1090.32,968.13c66.15-6.46,131.07-4.82,194.4,15.38c99.13,31.63,148.67,122.28,138.56,221.91 c-8.3,81.86-50.52,143.47-109.67,195.97c-64.83,57.55-139.87,98.42-219.43,131.39c-115.47,47.85-235.39,77.84-360.26,86.02 c-69.92,4.58-139.7,3.09-207.16-19.27c-19.29-6.39-37.6-15.77-56.35-23.78c0.42-1.13,0.84-2.27,1.26-3.4 c15.18,1.5,30.33,3.58,45.55,4.41c80.96,4.4,160.72-5.43,239.81-21.54c118.88-24.22,233.52-60.96,340.58-119 c55.51-30.09,107.19-65.43,147.63-114.95c22.82-27.94,39.19-59.02,43.49-95.44c5.12-43.4-8.8-81.6-32.93-116.69 c-32.38-47.08-76.11-82.06-122.87-113.63C1118.95,986.07,1104.54,977.24,1090.32,968.13z"></path> <path d="M921.79,2269.67c23.17-14.3,47.25-27.35,69.24-43.29c18.38-13.32,36.07-28.48,50.98-45.52 c36.57-41.82,37.62-87.11,5.6-132.72c-19.53-27.83-43.83-51.29-71.43-70.49c-157.62-109.66-320.76-209.56-502.62-274.75 c-79.71-28.57-161.6-47.04-247.12-43.13c-37.5,1.72-73.91,9.1-108.81,23.26c-2.69,1.09-5.39,2.14-7.91,3.13 c-0.87-0.93-1.81-1.5-1.75-1.93c3.87-27.83,12.24-54.07,29.62-76.52c25.04-32.35,60.05-39.45,97.53-33.26 c29.69,4.9,59.13,12.83,87.78,22.19c126.2,41.25,247.1,95.2,365.81,154.38c101.84,50.77,201.77,104.77,295.14,170.16 c43,30.11,84.96,61.75,119.8,101.31c15.97,18.14,30.92,37.93,42.43,59.09c25.65,47.18,14.82,89.73-28.44,121.58 c-34.21,25.19-73.64,38.83-114.07,49.58c-27,7.18-54.49,12.55-81.76,18.73C921.81,2270.87,921.8,2270.27,921.79,2269.67z"></path> <path d="M1440.95,1306.6c54.86,29.89,107.97,58.72,149,104.86c3.42,3.85,6.55,8.01,9.44,12.28c23.27,34.31,20.23,66.62-9.35,95.78 c-24.62,24.27-54.91,39.65-86.13,53.27c-64.48,28.12-131.95,47.21-199.92,64.45c-89.38,22.67-179.14,43.84-268.47,66.7 c-61.45,15.73-122.83,32.12-179.86,61.09c-0.83,0.42-1.97,0.21-4.62,0.44c16.1-20.28,34.67-35.63,54.79-49.2 c46.88-31.64,99.05-52.23,151.5-72.24c65.81-25.12,131.9-49.53,197.19-75.91c36.67-14.81,70.57-35.31,101.52-60.32 c59.89-48.41,88.5-110.91,84.93-187.98C1440.81,1316.2,1440.95,1312.58,1440.95,1306.6z"></path> <path d="M577.86,1065.73c-19.95,12.6-42.4,24.77-62.61,39.92c-64.08,48.02-81.07,112.36-50.51,186.33 c19.29,46.68,48.23,87.29,82.5,123.72c33.34,35.44,68.99,68.71,103.64,102.9c2.85,2.81,5.86,5.47,7.92,10.13 c-5.88-2.08-11.87-3.89-17.63-6.27c-103.3-42.57-191.67-105.48-261.44-193.32c-21.93-27.6-39.86-57.71-50.04-91.83 c-19.07-63.92,3.32-113.83,63.78-142.27c41.13-19.34,85.2-26.1,129.92-29.11C542.02,1064.68,560.8,1065.73,577.86,1065.73z"></path> <path d="M382.48,1755.58c8.2,24.02,16.28,48.08,24.62,72.06c32.3,92.79,66.28,184.9,114.96,270.71 c39.39,69.42,87.36,131.59,153.29,178.19c78.96,55.81,168.08,77.53,263.39,76.8c30.2-0.23,60.38-3.57,90.57-5.49 c2.4-0.15,4.8-0.35,7.55,1.69c-21.52,4.53-42.95,9.58-64.58,13.5c-67.81,12.3-135.91,18.61-204.89,10.72 c-125.51-14.35-215.98-78.76-274.44-189.91c-34.86-66.28-56.41-137.23-71.76-209.95c-15.09-71.47-27.11-143.58-40.45-215.42 c-0.13-0.69,0.1-1.44,0.16-2.17C381.42,1756.06,381.95,1755.82,382.48,1755.58z"></path> <path d="M771.14,1281.68c24.84,6.61,49.42,14.56,74.58,19.55c43.02,8.52,85.92,8.38,127.27-9.15c17.95-7.61,33.7-18.35,45.29-34.37 c20.44-28.25,17.11-59.81-9.95-81.74c-35.93-29.13-76.32-30.35-118.15-15.4c-27.71,9.9-49.97,28.04-70.07,50.38 c-0.59-1.76-1.27-2.7-1.06-3.36c9.5-30.43,21.17-59.9,40.19-85.81c28.04-38.2,62.91-47.86,104.59-25.78 c46.41,24.59,89.78,54.05,126.13,92.66c4.03,4.28,7.7,8.97,11.08,13.79c24.51,34.96,21.67,66.92-10.65,95.45 c-49.02,43.27-106.66,62.12-171.87,54.77c-54.48-6.14-101.7-29.16-142.81-65.14c-1.92-1.68-4.36-2.76-6.56-4.13 C769.81,1282.82,770.48,1282.25,771.14,1281.68z"></path> <path d="M409.34,1588.03c-7.88-9.47-14.48-17.29-20.96-25.2c-28.08-34.26-55.38-69.19-84.34-102.68 c-48.08-55.62-109.63-84.75-182.98-89.06c-6.22-0.37-12.42-1.08-19.18-1.68c0.74-1.51,0.93-2.71,1.63-3.22 c107.19-78.2,247.03-38.14,302.48,59.95C435.42,1478.21,434.38,1531.79,409.34,1588.03z"></path> <path d="M962.68,2418.29c-16.69,32.29-31.18,65.98-50.61,96.52c-24.68,38.79-52.51,75.68-80.59,112.15 c-21.53,27.96-47.7,38.35-83.04,36.5c3.95-2.04,6.23-3.52,8.72-4.46c23.16-8.76,34.23-25.91,37.4-50.12 c8.64-65.85,9.5-130.94-17.18-195.97c61.82,13.19,121.8,11.4,181.83,2.66C960.36,2416.48,961.52,2417.39,962.68,2418.29z"></path> <path d="M1098.32,2317.78c18.55-20.92,35.72-39.16,51.64-58.44c72.21-87.41,127.22-185.45,175.91-287.28 c47.34-99,87.14-201.1,124.36-304.25c1.36-3.78,2.88-7.5,5.8-10.79c-10.76,38.35-21.43,76.72-32.31,115.04 c-27.53,96.96-56.34,193.5-96.8,286.08c-27.15,62.12-58.5,121.82-103.04,173.6c-29.25,34-62.97,62.25-105.24,78.95 C1112.87,2312.97,1106.92,2314.8,1098.32,2317.78z"></path> <path d="M231.68,2114.81c22.53,12.74,44.59,29.39,62.27,52.52c22.8,29.83,46.04,59.62,71.92,86.73 c43.5,45.57,99.96,68.69,160.02,82.82c55.64,13.09,111.78,24.06,167.69,36c3.78,0.81,7.5,1.89,11.25,2.85 c0.1,0.94,0.2,1.89,0.31,2.83c-23.14,5.57-46.15,11.79-69.45,16.58c-74.75,15.37-140.93-5.78-201.24-49.27 c-64.11-46.22-119.77-100.03-157.66-171C264.84,2152.52,246.16,2133.76,231.68,2114.81z"></path> <path d="M1544.57,2254.16c-69.52,62.15-140.2,122.57-226.9,160.11c-93.44,40.46-186.68,36.57-279.6-1.93 c-10.56-4.37-20.91-9.25-31.32-13.98c-0.87-0.39-1.43-1.46-3.45-3.63C1206.42,2431.56,1382.24,2369.27,1544.57,2254.16z"></path> <path d="M715.24,1117.63c-6.38,10.76-11.85,19.32-16.67,28.23c-12.8,23.64-15.68,48.87-16.11,75.72 c-0.74,46.58,21.51,81.58,49.94,114.61c7.2,8.36,14.63,16.52,22.07,24.9c-1.05,0.46-1.91,1.13-2.22,0.93 c-39.3-24.78-78.72-49.54-110.96-83.53c-9.26-9.76-17.37-21.22-23.57-33.17c-12.83-24.73-9.97-49.39,5.31-72.35 C644.5,1140.69,677.59,1127.58,715.24,1117.63z"></path> <path d="M1168.71,1309.1c-19.87,56.74-56.59,95.41-116.83,108.77c-39.05,8.66-78.46,6.82-117.86,3.82 c-24.62-1.88-49.19-4.34-74.32-8.19c2.73-0.8,5.41-1.78,8.18-2.38c50.07-10.85,100.38-20.71,150.16-32.72 C1072.52,1365.28,1124.45,1345.74,1168.71,1309.1z"></path> <path d="M873.52,1473.44c-18.38-6.25-36.81-12.37-55.13-18.76c-46.82-16.35-94.75-25.04-144.53-21.68 c-3.1,0.21-7.21-0.05-9.32-1.87c-26.45-22.79-52.63-45.9-78.25-70.04C694.64,1366.17,787.21,1411.62,873.52,1473.44z"></path> <path d="M1235.67,2500.18c-11.86,1.43-23.69,3.14-35.58,4.25c-34.67,3.23-69.25,3.66-103.31-5.21 c-34.41-8.97-62.92-26.73-83.11-56.6c-2.8-4.14-5.12-8.59-8.75-14.74c17.92,5.36,33.42,11.08,49.43,14.48 c15.86,3.36,29.31,10.07,42.63,19.24c39.65,27.3,84.51,37.28,132.16,36.35c2.09-0.04,4.18-0.01,6.26-0.01 C1235.49,2498.68,1235.58,2499.43,1235.67,2500.18z"></path> <path d="M424.74,2419.89c66.44,25.48,131.58,7.59,197.01-5.63c-23.22,26.69-52.3,39.32-87.02,37.98 C495.66,2450.73,460.15,2436.09,424.74,2419.89z"></path> </g> <path d="M2881.6,2469.25c-31.08,62.36-66.46,121.26-109.14,176.77c-8.16-7.57-15.89-14.46-23.29-21.66 c-26.17-25.47-50.52-52.55-73-81.24c-17.04-21.74-34.09-43.48-51.15-65.21c-4.36-5.55-5.06-5.74-11.33-3.1 c-2.46,1.04-4.81,2.38-7.32,3.26c-7.13,2.5-12.22,1.17-17.21-4.5c-21.6-24.52-38.89-51.86-52.66-81.21 c-10.89-23.22-20.32-47.11-30.37-70.71c-1.23-2.9-2.36-5.84-3.62-8.96c-11.17-2.63-19.1,8.95-30.9,6.12 c-8.08-25.01-12.92-51.17-16.78-77.46c-3.83-26.07-6.56-52.29-9.84-78.97c-43.62-8.89-86.25-20.99-126.33-42 c-1.58,3.18-2.9,5.73-4.14,8.32c-13.38,27.96-27.14,55.7-44.18,81.74c-18.3,27.97-40.28,52.7-66.44,73.8 c-7.91,6.38-9.36,6.2-16.06-1.8c-2.19-2.61-4.47-5.15-6.97-8.02c-11.17,4.75-20.03,11.89-28.47,19.58 c-6.89,6.27-13.57,12.77-20.39,19.13c-19.87,18.56-42.56,32.86-67.96,43.65c-8.86-4.5-8.61-15.43-15.78-22.09 c-2.38,1.17-4.97,2.33-7.47,3.68c-32.49,17.55-65.74,33.42-101.18,44.5c-19.47,6.09-39.34,10.3-59.53,13.29 c-5.19,0.77-8.18-1.01-10.49-5.07c-2.73-4.79-5.44-9.58-8.32-14.66c-72.06,13.9-143.7,26.72-217.53,29.58 c0-3.78-0.17-6.88,0.03-9.96c2.81-44.89,10.06-89.13,20.36-132.91c3.27-13.87,6.81-27.68,10.3-41.51c1.98-7.87,0.72-10.92-6.53-14.7 c-1.89-0.99-3.94-1.67-5.85-2.65c-6.82-3.48-7.8-5.4-5.13-12.54c9.08-24.26,17.93-48.62,27.67-72.62 c11.84-29.19,25.99-57.36,41.43-84.88c1.03-1.83,1.94-3.72,3.22-6.18c-5.28-5.83-10.56-11.66-16.26-17.95 c6.66-7.87,12.93-15.75,19.7-23.18c33.13-36.34,72.37-65.11,115.26-89.25c8.84-4.98,17.9-9.59,26.85-14.39 c5.46-2.93,6.07-4.37,4.38-10.09c-3.97-13.39-4.08-13.63,8.63-19.63c39.85-18.79,81.27-32.89,124.97-40.2 c13.44-2.25,26.74-5.27,41.63-8.24c-2.56-2.03-3.78-3.23-5.21-4.09c-34.48-20.9-69.26-41.36-103.4-62.79 c-24.77-15.55-38.49-38.72-41.48-67.39c-1.47-14.12-1.53-28.47-1.07-42.68c1.5-46.68-4.53-92.24-20.62-136.22 c-4.05-11.07-10.18-21.52-16.3-31.7c-8.87-14.75-13.96-30.11-12.34-47.45c0.51-5.43,2.53-9.45,6.69-12.88 c9.7-7.97,21.06-12.54,32.97-15.95c16.99-4.86,34.06-9.44,51.04-14.33c3.81-1.1,7.5-2.77,11.08-4.51 c11.54-5.6,23.02-11.34,34.5-17.06c18.43-9.18,33.07-21.87,42.48-40.58c6.88-13.68,15.55-26.51,23.68-39.57 c2.46-3.95,2.79-7.41,1.26-11.87c-2.99-8.73-5.4-17.67-7.58-26.64c-0.92-3.79-0.91-7.86-0.81-11.8c0.19-7.43,2.82-13.29,9.44-18.08 c24.85-17.98,49.25-36.57,73.85-54.88c41.13-30.6,77.6-65.75,108.36-106.6c6.38-8.47,12.98-17.02,20.76-24.18 c15.9-14.63,34.96-21.04,56.93-17.66c34.51,5.32,66.98,16.67,97.93,32.32c4.96,2.51,9.24,2.84,14.42,1.34 c33.11-9.54,66.94-14.69,101.46-15.04c62.55-0.63,120.93,14.93,175.61,44.44c9.63,5.2,18.97,10.91,29.26,16.87 c4.08-3.24,8.53-6.51,12.67-10.14c9.63-8.42,18.96-17.16,28.67-25.49c10.38-8.9,21.7-16.44,35.04-20.45 c16.79-5.04,33.45-3.25,49.91,1.56c15.35,4.48,29.13,12.01,41.63,21.84c30.77,24.17,57.63,52.17,82.46,82.11 c16.79,20.25,32.72,41.22,50.03,61.02c36.32,41.53,78.89,76.02,125.62,105.67c6.03,3.82,11.86,8.31,16.76,13.43 c10.45,10.92,13.07,24.1,8.14,38.23c-2.06,5.91-5.12,11.67-8.7,16.86c-26.74,38.78-49.36,79.75-68.65,122.59 c-5.22,11.6-8.6,23.11-7.12,35.94c1.81,15.72,3.02,31.52,4.53,47.28c0.1,1.01,0.52,1.99,0.98,3.65c9.84,2.82,19.82,5.76,29.84,8.53 c26.84,7.42,53.84,14.33,79.51,25.33c15.81,6.77,30.76,14.98,44.41,25.4c2.3,1.76,4.49,3.67,7.01,5.74 c-2.13,4.93-4.19,9.46-6.05,14.08c-2.9,7.17-2.45,8.87,3.62,13.46c30.49,23.03,59.32,47.93,85.57,75.57 c17.24,18.15,33.11,37.45,46.49,58.6c0.83,1.32,1.41,2.79,2.39,4.79c-2.22,2.22-4.36,4.49-6.65,6.61c-1.36,1.26-3.01,2.21-4.44,3.4 c-7.04,5.91-7.26,7.66-1.69,14.87c31.49,40.8,62.4,82.01,90.01,125.51c2.27,3.58,4.63,7.12,6.75,10.79 c2.86,4.97,2.72,5.86-2.63,8.56c-11.93,6.02-23.81,12.2-36.04,17.57c-44.93,19.73-91.21,35.73-139.47,45.31 c-30.2,6-60.78,10.18-91.19,15.14c-4.5,0.73-9.03,1.22-13.54,1.9c-5.95,0.91-7.07,2.03-7.74,8.12c-0.43,3.93-0.45,7.9-0.91,11.83 c-0.17,1.49-1.07,2.9-1.7,4.5c-12.53,0-24.9,0.98-37.07-0.19c-30.68-2.95-61.26-6.87-91.88-10.42c-7.3-0.85-8.7-0.15-11.09,6.83 c-1.11,3.23-1.45,6.71-2.45,9.99c-1.04,3.41-2.45,6.72-3.99,10.86c-10.36-3.37-19.72-6.45-29.11-9.46 c-16.3-5.22-32.58-10.51-48.95-15.52c-3.96-1.21-8.23-1.48-13.81-2.42c1.45,3.87,2.31,6.28,3.25,8.66 c15.3,38.73,27.53,78.32,33.93,119.48c4.43,28.51,6.77,57.17,4.54,86.04c-0.54,6.99-1.01,7.3-8.21,7.76 c-5.61,0.36-11.2,0.88-17.55,1.38c-1.29,5.09-2.63,10.11-3.83,15.17c-8.59,35.98-17.47,71.88-30.59,106.6 c-7.11,18.84-15.47,37.11-25.55,54.6c-4.73,8.22-7.6,9.36-17.01,6.94C2889.69,2471.24,2885.86,2470.31,2881.6,2469.25z M1880.54,1419.53c0.82,10.48,5.45,20.13,11.1,29.48c4.24,7.01,8.89,13.92,12.03,21.42c17.51,41.67,26.86,85.1,27.12,130.25 c0.08,14.25-0.81,28.5-1.31,42.75c-1.07,30.99,11.14,55.94,35.4,75.37c3.95,3.16,8.05,6.18,12.34,8.87 c9.48,5.98,19.01,11.92,28.73,17.52c37.34,21.49,76.52,39.35,116.17,56.22c78.3,33.32,158.8,59.65,243.28,72.96 c54.04,8.51,107.9,8.58,161.34-4.73c4.04-1.01,8.55-1.17,12.68-0.61c5.66,0.77,8.29,4.07,8.96,9.65c0.25,2.08,0.28,4.24,0.01,6.31 c-1.41,10.72-2.77,21.46-4.47,32.14c-4.78,30.07,5.44,53.41,31.83,69.63c1.82,1.12,3.68,2.18,5.45,3.38 c5.52,3.75,11.46,7.04,16.4,11.43c12.34,10.95,24.55,22.08,36.16,33.77c9.49,9.56,15.94,21.18,19.44,34.22 c0.43,1.6,0.44,3.31,0.89,6.95c-4.02-2.75-7.06-4.04-8.97-6.27c-20.9-24.43-46.74-42.56-74.85-57.96 c-7.47-4.09-14.79-8.65-21.54-13.81c-26.07-19.93-37.33-46.16-33.54-78.57c0.39-3.37,0.57-6.9,0.03-10.22 c-1.1-6.78-2.82-7.53-9.76-6.92c-17.36,1.5-34.72,3.48-52.12,3.95c-57.56,1.56-113.86-7.18-169.45-21.22 c-42.65-10.77-84.29-24.63-125.64-39.39c-3.43-1.22-6.9-2.35-10.26-3.49c-2.89,6.52-3.09,6.59-0.77,12.67 c8.2,21.5,15.93,43.19,24.96,64.34c17.6,41.2,40.73,78.99,72.64,111.29c40.62,41.12,88.32,70.93,143.59,89.05 c33.5,10.98,67.94,17.32,103.03,20.62c51.62,4.84,101.6-1.5,150.08-19.92c18.61-7.07,28.13-20.24,30.51-39.13 c3.4-26.93-0.79-52.75-13.2-76.95c-5.54-10.8-12.21-21.1-19.09-31.16c-19.8-28.97-37.98-58.8-52.27-90.84 c-9.21-20.64-24.7-34.9-45.99-42.98c-5.98-2.27-12.18-4.13-18.42-5.59c-50.63-11.85-100.66-25.79-150.22-41.4 c-58.77-18.52-116.97-38.42-172.52-65.19c-31.88-15.36-62.49-32.73-90.58-54.2c-17.19-13.14-33.59-27.16-48.12-43.17 c-10.61-11.69-19.52-24.49-25.7-39.04c-1.73-4.07-2.63-7.96,1.44-12.63c36.92,54.82,90.92,87.04,151.11,113.78 c-0.64-5.19-1.06-9.03-1.59-12.87c-3.14-22.49-6.73-44.92-9.33-67.47c-2.06-17.9-3.55-35.94-12-52.2 c-7.18-13.83-15.09-27.38-23.72-40.38c-26.41-39.79-52.6-79.7-76.52-121.02c-7.43-12.83-15.67-25.21-23.67-37.72 c-1.94-3.04-4.41-5.74-6.93-8.97c-23.02,17.7-47.39,31.61-73.87,41.32C1934.54,1402.48,1907.66,1410.59,1880.54,1419.53z M1674.77,2374.04c4.72,0,7.81,0.16,10.88-0.05c2.65-0.18,5.26-1.06,7.9-1.16c41.38-1.46,82.26-6.86,122.78-15.03 c16.54-3.34,33-7.07,49.49-10.65c6.18-1.34,12.15-1.61,17.37,2.57c0,2.41-0.08,4.5,0.01,6.59c0.35,8.31,5.58,12.71,13.65,10.58 c16.29-4.29,32.73-8.33,48.6-13.86c38.16-13.29,73.02-33,106.62-54.98c2.37-1.55,4.77-3.07,6.9-4.44 c9.22,6.68,8.6,19.21,18.28,24.81c10.85-4.95,20.38-11.72,29.63-18.94c18.35-14.35,33.97-31.44,49.95-48.17 c7.13-7.46,14.24-14.94,21.91-22.99c3.8,4.22,7.2,7.89,10.47,11.67c3.25,3.74,5.82,8.24,11.06,9.46 c34.43-27.67,83.25-105.87,89.68-143.38c-14.98-12.83-29.82-25.77-44.95-38.39c-6.33-5.28-13.22-9.92-19.93-14.75 c-2.37-1.71-4.84-3.39-8.08-1.55c-3.1,1.76-2.1,4.62-2.1,7.09c-0.08,20.07-0.05,40.15-0.05,60.22c0,2.8,0,5.6,0,8.1 c-3.61,1.06-5.92,1.36-6.63-2.04c-0.49-2.33-0.98-4.65-1.43-6.98c-5.94-31.12-11.77-62.27-17.86-93.36 c-1.86-9.47-4.43-18.8-6.92-29.21c-13.16,7.86-25.63,14.44-35.81,24.39c-2.74,2.68-4.13,5.81-4.38,9.81 c-1.81,28.98-3.44,57.99-5.96,86.92c-2.52,29-8.15,57.49-17.76,85.11c-0.89,2.57-2.04,5.05-3.06,7.57c-0.61-0.17-1.22-0.34-1.83-0.5 c0.84-20.53,1.58-41.07,2.55-61.59c1.31-27.72,2.29-55.43-0.93-83.08c-0.8-6.84-1.02-13.91-3.88-20.41 c-1.17,0.35-1.75,0.39-2.16,0.67c-29.51,20.2-58.99,40.44-88.53,60.6c-2.45,1.67-3.4,3.68-3.78,6.51 c-1.35,10.2-2.76,20.41-4.53,30.55c-7.46,42.67-20.6,83.54-40.28,122.31c-1.07,2.11-2.32,4.13-3.49,6.19 c-1.01-2.7-0.91-4.8-0.49-6.83c3.21-15.51,6.31-31.05,9.78-46.5c5.05-22.43,10.1-44.86,11.15-67.91c0.29-6.48,0.04-12.99,0.04-21.01 c-74.48,52.12-145.39,106.06-214.63,163.12c-1.75-2.55-2.85-4.17-4-5.85c2.88-3.51,5.37-6.61,7.93-9.65 c17.16-20.37,36.25-38.91,56.01-56.79c25.08-22.7,50.44-45.1,75.65-67.66c1.42-1.27,2.54-2.88,4.25-4.85 c-2.23-0.58-3.49-1.01-4.77-1.23c-36.2-6.23-72.41-12.2-109.28-13.25c-7.38-0.21-14.72-1.89-22.07-2.9 c0.25-1.79,0.91-2.31,1.67-2.52c2.83-0.82,5.66-1.66,8.53-2.27c17.44-3.7,35.19-4.35,52.86-3.43c29.71,1.56,59.39,3.87,89.05,6.26 c6.78,0.55,12.14-0.46,17.71-4.78c28.01-21.75,56.37-43.06,84.6-64.54c2.08-1.58,4.06-3.29,6.41-5.2 c-7.17-8.98-16.22-14.52-26.19-18.44c-13.18-5.19-26.42-10.39-39.99-14.41c-21.54-6.37-43.39-11.71-65.06-17.63 c-4.45-1.22-8.7-3.11-13.04-4.69c0.21-0.62,0.42-1.24,0.63-1.86c61.09-1.93,119.19,11.18,175.48,35.16 c25.97-20.38,55.67-35.66,80.05-59.2c-42.56-20.75-87.81-31.87-130.55-48.77c-0.22-3.26,0.13-5.49,3.68-5.11 c1.86,0.2,3.72,0.5,5.57,0.84c30.05,5.53,60.08,11.09,90.13,16.59c9.1,1.67,18.23,3.2,28.56,5.01c-1.28-4.28-2.04-7.3-3.08-10.23 c-10.25-28.9-20.68-57.74-30.7-86.71c-1.88-5.42-4.86-7.14-10.41-7.5c-30.98-2.02-61.64,0.45-92.12,5.8 c-28.33,4.98-56.08,11.96-82.22,24.16c-5.5,2.57-10.72,5.72-16.66,8.92c1.67,3.34,2.94,5.89,4.22,8.43 c4.34,8.64,2.83,11.85-5.89,15.8c-18.01,8.16-36.24,15.98-53.61,25.32c-34.33,18.44-64.76,42.28-93.25,68.54 c-5.06,4.66-9.71,9.74-14.61,14.68c0.78,1.64,1.12,2.98,1.94,3.93c1.9,2.2,4.01,4.24,6.09,6.29c5.73,5.65,5.78,6.64,1.78,13.56 c-9.27,16.06-18.83,31.99-27.58,48.32c-16.93,31.59-30.92,64.4-40.44,98.95c-1.99,7.23-1.94,7.3,4.7,11.27 c2.98,1.78,6.03,3.46,8.84,5.47c3.27,2.33,4.73,5.11,3.44,9.54c-2.67,9.12-4.49,18.47-6.9,27.66 c-9.56,36.55-18.41,73.25-23.7,110.67C1676.28,2352.68,1675.8,2362.68,1674.77,2374.04z M2757.3,2076.12 c6.31,3.68,11.82,6.78,17.22,10.07c4.55,2.77,8.89,5.86,13.43,8.64c17.54,10.72,35.52,20.79,52.55,32.22 c13.04,8.75,24.94,19.15,37.28,28.89c4.21,3.33,6.99,7.33,4.48,13.76c-2.47-1.23-4.84-2.29-7.1-3.55 c-15.16-8.47-30.31-16.96-45.45-25.48c-25.64-14.42-51.61-28.17-79.75-37.4c-6.06-1.99-12.76-5.58-18.34-4.46 c-5.23,1.05-9.25,7.52-14.03,11.32c-3.32,2.63-4.28,5.54-3.51,9.67c6.09,32.45,12.03,64.92,17.96,97.4c0.6,3.31,2.03,5.67,5.07,7.55 c12.94,8,25.73,16.24,38.56,24.42c19.6,12.5,38.91,25.41,56.12,41.02c5.47,4.95,10.25,10.82,14.45,16.88 c2.89,4.16,4.25,9.36,6.29,14.1c-0.56,0.42-1.13,0.84-1.69,1.26c-5.2-3.94-10.39-7.88-15.59-11.81 c-19.78-14.96-39.31-30.24-61.71-41.44c-10.73-5.37-21.78-9.79-34.68-13.29c0,4.71-0.34,8.58,0.06,12.37 c1.12,10.5,2.63,20.96,3.83,31.45c4.72,41.19,9.59,82.37,13.93,123.6c1.46,13.89,2.03,27.91,2.07,41.88 c0.03,9.24-1.55,18.51-6.28,27.05c-14.33-102.13-33.05-203.3-57.21-304.77c-3.14,3.25-5.22,5.25-7.14,7.41 c-15.61,17.51-30.11,35.92-42.01,56.01c-12.41,20.96-23.42,42.71-35.03,64.12c-0.63,1.16-1.05,2.44-1.74,3.56 c-0.68,1.1-1.57,2.07-3.27,4.26c5.35-37.3,17.86-70.55,35.01-102.2c11.78-21.73,26.13-41.81,41.45-61.24 c6.93-8.79,5.49-18.85-4.12-26.05c-63.85,33.58-132.67,39.8-204.44,32.63c1.14,39.31,6.25,76.95,16.06,115.1 c5.22-1.62,9.53-2.8,13.71-4.31c3.52-1.26,6.79-3.25,10.35-4.29c6.97-2.03,8.95-0.77,11,6.19c3.36,11.41,6.46,22.89,10.07,34.22 c13.68,43.07,31.82,84.08,58.26,121.22c9.71,13.65,9.72,13.64,25.34,7.19c9.62-3.97,11.49-3.48,17.35,4.64 c37.54,51.95,78.33,101.24,124.02,146.51c2.18,2.16,4.49,4.21,7.07,6.62c2.53-2.97,4.45-5.14,6.27-7.39 c23.67-29.25,42.8-61.33,60.31-94.39c8.55-16.15,16.8-32.47,25.62-48.48c8.59-15.6,4.21-12.92,21.03-10.39 c9.4,1.41,10.18,1.12,14.39-7.16c17.14-33.7,29.06-69.25,38.06-105.76c4.74-19.23,8.77-38.63,12.76-58.03 c0.92-4.46,2.94-6.49,7.33-6.6c2.68-0.07,5.38,0.03,8.04-0.22c6.78-0.64,8.31-2.41,8.03-9.02c-2.66-62.8-17.55-122.64-44.88-179.47 c-2.85-5.93-5.84-11.8-8.77-17.7c5.11-7.83,16.92-6.6,21-16.09c-10.13-18.62-20.34-37.38-30.32-55.72c-1.46-0.07-2.03-0.26-2.49-0.1 c-25.87,8.8-52.47,12.87-79.83,11.76c-3.33-0.13-5.35,1.16-7.31,3.75c-18.78,24.75-37.7,49.4-56.56,74.09 C2758.83,2073.58,2757.93,2075.16,2757.3,2076.12z M3260.6,1779.42c-3.28,0.87-5.84,1.54-8.4,2.23 c-15.77,4.25-31.66,8.11-47.27,12.85c-31.19,9.46-60.68,22.56-87.33,41.37c-2.23,1.57-4.28,3.38-7.55,5.99 c64.85,29.13,130.07,53.13,195.44,78.12c-0.98,2.53-1.69,4.36-2.54,6.55c-2.78-0.59-5.12-0.95-7.38-1.6 c-34.76-9.92-69.71-19.21-104.2-29.98c-51.61-16.12-102.88-33.28-154.3-49.98c-2.62-0.85-5.32-1.49-8.82-2.47 c4.99,20.42,11.2,39.03,19.89,56.57c12.81,25.84,26.75,51.13,40.18,76.67c0.83,1.58,1.43,3.28,2.13,4.92 c-3.21-1.14-5.25-2.82-7.24-4.54c-16.23-14.06-29.64-30.5-41.69-48.07c-15.04-21.93-27.52-45.3-39.66-68.85 c-1.12-2.16-2.45-4.22-4.25-7.3c-1.47,3.7-2.46,6.11-3.39,8.55c-5.39,14.07-10.42,28.29-16.21,42.2 c-10.2,24.52-24.23,46.49-45.68,63.19c-0.37,0.29-0.48,0.9-0.7,1.35c0.06,0.54-0.04,1.13,0.18,1.56 c11.27,21.3,22.53,42.6,33.96,63.82c0.91,1.69,2.81,3.28,4.62,4.01c13.41,5.36,26.89,10.58,40.42,15.64 c3.65,1.37,7.56,2.06,11.52,3.12c0.63-1.69,1.14-2.63,1.32-3.62c0.75-4.15,1.05-8.41,2.17-12.45c2.14-7.73,4.93-9.17,12.84-7.51 c12.32,2.6,24.62,5.29,36.98,7.73c27.38,5.42,54.92,9.66,82.97,9.42c6.59-0.06,7.89-1,9.73-7.06c0.61-2,0.88-4.12,1.16-6.2 c1.32-9.84,2.37-10.66,12.63-11.37c16.58-1.14,33.21-1.91,49.69-3.85c37.33-4.4,73.95-12.19,109.95-23.01 c33.13-9.96,65.49-21.8,96.77-36.47c2.28-1.07,4.49-2.29,7.04-3.6c-30.39-49.52-63.44-95.92-100.42-139.12 c2.45-10.64,14.35-13.5,17.37-23.15c-0.41-0.87-0.76-1.87-1.33-2.75c-1.44-2.23-2.93-4.42-4.47-6.58 c-17.82-25.06-40.55-45.66-62.73-66.75c-5.39-5.12-11.19-9.86-17.03-14.49c-14.62-11.6-29.27-23.16-44.12-34.47 c-4.07-3.1-4.98-6.65-3.78-11.08c0.69-2.53,1.92-4.91,2.73-7.42c0.94-2.91,1.68-5.87,2.41-8.45c-1.17-0.93-1.54-1.35-2-1.58 c-33.34-16.07-67.55-29.8-104.17-36.79c-9.91-1.89-19.9-4.04-28.68-3.61c-7.7,11.1-14.03,21.59-21.75,30.97 c-7.23,8.78-15.66,16.65-24.04,24.43c-11.19,10.4-12.33,23.48-12.7,38.46c10.73-3.79,19.96-7.34,29.37-10.3 c11.47-3.61,23.04-6.91,34.68-9.95c4.43-1.16,9.16-1.33,14.57-0.29c-4.71,6.22-10.66,8.77-16.28,11.7 c-19.91,10.37-39.86,20.67-59.81,30.96c-8.72,4.49-14.87,10.88-17.57,20.52c-3.7,13.22-8.13,26.24-11.84,39.46 c-2.05,7.31-3.26,14.84-4.84,22.21c1.44,1.03,2.23,1.73,3.15,2.22c19.59,10.58,40.19,18.71,61.65,24.85 c4.34,1.24,7.65,0.18,11.33-1.84c35.27-19.48,72.44-34.32,111.82-43.59c15.96-3.76,32.09-6.37,48.6-5.47 C3250.64,1775.68,3255.73,1775.82,3260.6,1779.42z M2806.94,1155.28c7.4,16.36,14.4,31.98,21.57,47.53 c1.09,2.37,2.86,4.46,4.43,6.59c13.59,18.4,21.25,38.96,22.86,61.64c1.18,16.65,3.92,32.93,8.8,48.99 c10.07,33.17,7.75,65.66-6.9,97.31c-6.4,13.82-15.44,25.92-24.26,38.2c-2.4,3.35-4.72,6.75-7.91,11.32 c5.01,0.42,8.39,0.88,11.77,0.94c8.04,0.15,16.09-0.14,24.11,0.21c6.85,0.29,13.05,2.78,18.45,7.03c3.4,2.68,4.79,5.49,3.27,10.22 c-3.77,11.71-10.95,20.47-21.51,26.61c-7.15,4.16-14.64,7.75-21.82,11.86c-9.11,5.21-14.96,12.73-15.74,23.41 c-0.12,1.61,0.47,3.26,0.86,5.72c21.86-13.32,42.13-26.97,59.28-44.73c10.82-11.22,19.27-23.91,26.05-37.84 c8-16.41,11.3-34.02,14.6-51.67c0.3-1.59,0.97-3.1,1.81-5.73c4.59,16.23,4.6,36.27,0.38,53.67c-6.2,25.54-19.52,47.24-37,66.73 c-15.87,17.69-33.89,33.07-52.61,47.71c-30.24,23.65-60.56,47.21-90.66,71.03c-9.81,7.77-19.07,16.22-28.51,24.44 c-1.45,1.26-2.49,2.99-4.17,5.06c7.43,1.65,13.65,0.55,19.92-0.96c12.49-3,24.93-6.36,37.57-8.63 c24.59-4.41,45.83-14.69,65.43-30.18c51.4-40.65,98.49-85.61,142.36-133.94c13.95-15.36,27.33-31.19,38.75-48.52 c8.64-13.11,15.82-26.96,21.75-41.43c4.16-10.16,4.81-20.24,0.71-30.8c-5.57-14.37-5.85-29.41-3.76-44.53 c1.85-13.31,4.66-26.57,5.37-39.94c1.37-25.45-11.61-44.07-35.86-53.25c-50.18-19-98.27-42.12-144.14-69.75 c-10.28-6.19-20.65-12.29-31.27-17.88C2823.9,1157.99,2816.32,1155.34,2806.94,1155.28z M2531.38,1803.89 c11.8,4.62,23.42,8.08,33.99,13.51c23.31,11.99,38.33,31.65,49.03,54.83c2.88,6.25,5.69,12.53,8.74,18.69 c12.72,25.71,28.8,49.42,44.83,73.17c15.31,22.68,26.9,46.95,30.56,74.17c1.65,12.26,1.61,24.74,2.41,37.12 c0.16,2.52,0.66,5.01,1.22,9.14c6.79-5.79,12.37-10.56,17.96-15.31c24.33-20.69,45.18-44.36,62-71.32 c16.64-26.67,29.69-55.1,38.02-85.26c8.36-30.27,15.07-60.99,22.46-91.52c4.66-19.24,9.31-38.49,13.8-57.77 c0.74-3.18,0.63-6.56,1-10.9C2750.42,1784.85,2641.54,1797.82,2531.38,1803.89z M2271.82,1505.41c1.36,2.39,2.34,5.06,4.09,7.08 c25.77,29.8,52.95,58.24,83.66,83.24c13.85,11.28,27.68,22.59,41.21,34.23c26.29,22.61,51.8,45.97,72.21,74.18 c3.04,4.2,7.36,7.62,11.5,10.88c3.4,2.68,7.38,3.3,12.08,2.56c17.46-2.75,35.03-4.85,52.55-7.27c33.18-4.58,66.34-9.34,99.55-13.7 c6.05-0.79,10.31-3.49,14.38-7.62c29.95-30.4,61.83-58.78,97.28-82.75c23.06-15.6,32.12-38.37,40.51-63.66 c-3.23,0.78-5.52,1.17-7.7,1.88c-21.64,7.01-43.37,13.75-64.86,21.18c-40.47,13.99-81.92,23.03-124.82,25.33 c-33.12,1.77-65.92-0.99-98.56-6.28c-33.09-5.36-64.81-14.41-93.11-33.01c-3.42-2.25-7.86-3.67-11.98-4.08 c-19.11-1.92-37.57-6.52-55.14-13.87c-20.46-8.55-40.48-18.14-60.68-27.32C2280.39,1504.76,2276.95,1502.31,2271.82,1505.41z M2938.8,1618.73c-0.13,4.26-3.06,6.11-6.09,7.84c-7.19,4.11-14.32,8.31-21.61,12.25c-63.21,34.19-130.35,57.97-200.73,72.98 c-24.1,5.14-48.22,10.33-72.55,14.17c-32.55,5.13-65.33,8.81-97.97,13.38c-37.54,5.26-75.32,6.08-113.14,6.81 c-19.3,0.37-38.59,1.23-57.86,2.26c-7.77,0.42-15.45,2.02-23.7,5.91c18.77,7.78,36.74,13.38,55.95,14.76 c39.62,2.86,79.29,3.65,119.01,3.28c66.61-0.61,132.87-5.08,198.68-15.72c41.06-6.64,81.39-16.15,121.33-27.54 c55.41-15.8,108.01-37.91,157.23-67.59c17.16-10.35,34.01-21.18,48.88-34.69c16.05-14.58,26.69-32.05,30.65-53.47 c3.5-18.96,3.19-37.79,0.18-56.71c-3.38-21.22-10.07-41.55-16.98-61.82c-0.63-1.83-1.48-3.59-2.85-6.85 c-45.25,71.27-105.26,127.82-165.19,184.85c4.68-0.37,9.07-1.18,13.1-2.83c5.93-2.44,11.53-5.62,17.39-8.22 C2927.59,1619.54,2932.77,1617.29,2938.8,1618.73z M2446.81,1716.41c-2.05-3.81-3.01-6.93-5.02-9.1 c-11.75-12.67-23.14-25.76-35.79-37.51c-26.74-24.82-54.32-48.76-81.32-73.3c-31.64-28.76-60.4-59.98-83.92-95.72 c-12.81-19.46-29.55-35.28-48.42-49.25c-32.71-24.21-51.53-55.83-48.06-97.27c2.95-35.27,18.35-63.67,50.97-81.16 c3.08-1.65,4.73-3.7,5.83-6.95c14.27-42.29,38.92-77.93,71.99-108.11c2.11-1.92,4.17-3.89,6.29-5.88c-4.11-4.59-8.87-4.9-13.76-4.54 c-24.85,1.82-47,10.21-65.64,26.75c-7.57,6.71-15,13.6-22.24,20.65c-30.51,29.72-60.98,59.47-91.33,89.35 c-9.86,9.7-19.14,19.97-28.97,29.7c-3.97,3.93-4.76,8.25-3.05,13c2.41,6.68,4.63,13.58,8.2,19.67c7.25,12.33,15.4,24.14,23.09,36.23 c16.64,26.18,33.85,52.05,49.66,78.71c15.16,25.58,30.95,50.69,48.89,74.45c24,31.77,53.24,57.73,88.3,77.42 c37.81,21.23,73.92,45,107.41,72.46c9.47,7.77,18.46,16.11,27.67,24.19C2418.69,1719.92,2431.25,1721.19,2446.81,1716.41z M2419.67,1365.61c5.46-2.68,6.45-7.09,7.35-11.52c0.78-3.88,1.13-7.86,2.17-11.66c7.9-29.07,24.05-51.71,52.86-63.93 c21.89-9.28,45.06-12.85,68.52-9.59c54.42,7.56,96.33,35.2,126.09,80.39c12.92,19.61,21.34,41.37,27.13,64.04 c1.53,6,3.41,11.82,8.65,15.64c2.01,1.46,4.95,2.99,7.17,2.65c13.57-2.1,26.79-5.43,38.38-13.22c2.43-1.63,3.6-3.6,3.61-6.56 c0.01-6.33,0.33-12.67,0.44-19c0.47-26.79-1.58-53.28-9.42-79.12c-9.77-32.23-27.03-59.76-53.64-81.03 c-20.33-16.25-43.84-26.32-69.48-31.33c-21.66-4.23-43.44-5.32-65.56-3.32c-28.17,2.54-54.84,9.67-79.73,22.73 c-40.23,21.11-71.01,52.3-96.31,89.15c-0.27,0.39-0.21,1-0.38,1.93C2397.55,1329.91,2404.88,1349.96,2419.67,1365.61z M3092.9,1452.6c1.44-1.7,2.08-2.22,2.42-2.89c19.82-38.71,41.22-76.5,67.29-111.54c1.83-2.47,1.81-4.57,0.77-7.29 c-3.07-8.06-8.93-13.58-15.93-18.32c-57.91-39.2-108.75-85.75-151.51-140.8c-22.18-28.56-46.52-55.32-71.6-81.43 c-6.44-6.7-13.25-13.12-20.37-19.12c-16.01-13.5-33.35-24.92-54.13-30.15c-11.23-2.82-22.35-2.49-32.93,2.74 c-23.58,11.64-40.58,30.58-57.33,49.33c0.42,1.23,0.46,1.84,0.78,2.2c10.21,11.53,20.36,23.12,30.81,34.44 c1.36,1.48,4.24,1.84,6.5,2.24c5.26,0.95,10.63,1.36,15.87,2.42c20.85,4.22,39.11,14.13,56.86,25.23 c11.77,7.36,23.64,14.56,35.7,21.44c31.66,18.07,65.78,30.85,99.56,44.36c8.18,3.27,16.42,6.62,24.06,10.91 c15.29,8.58,25.61,21.42,30.85,38.07c3.77,12.01,5.13,24.23,3.56,36.76c-1.48,11.78-3.36,23.55-4.07,35.39 C3057.67,1385.57,3075.2,1418.67,3092.9,1452.6z M2325.32,1429.52c0.66,0.08,1.32,0.15,1.98,0.23 c9.49-23.51,19.41-46.87,28.33-70.59c5.71-15.2,8.03-31.23,6.93-47.52c-0.32-4.74,0.84-8.67,3.13-12.75 c24.57-43.74,60.45-75.72,105.61-97.75c29.02-14.15,59.6-23.79,91.94-27.23c31.13-3.31,61.56-0.16,91.01,10.64 c17.68,6.48,34.32,14.95,49.61,25.85c7.6,5.42,15.99,7.96,25.3,9.11c11.39,1.4,22.85,3.29,33.88,6.38 c21.02,5.89,40.83,14.49,57.52,28.97c1.39,1.2,3.76,1.31,5.68,1.92c0.63-2.14,1.51-4.24,1.78-6.42c0.15-1.18-0.74-2.49-1.16-3.74 c-6.43-18.68-17.72-34.14-31.96-47.83c-17.01-16.35-37.48-27.25-58.84-36.64c-39.06-17.17-80.63-23.21-122.91-25.21 c-38.64-1.83-76.45,4.16-113.81,13.39c-27.75,6.86-54.18,17.11-78.63,31.69c-44.86,26.76-76.52,64.8-96.64,112.29 c-13.13,30.99-17.26,63.05-10.96,96.2C2315.65,1404,2319.37,1417.12,2325.32,1429.52z M2833.84,1962.85 c3.88,0.41,7.23,1.02,10.59,1.08c48.98,0.87,95.34-33.33,109.18-80.56c4.82-16.47,9.33-33.03,14.12-49.5 c11.51-39.54,23.12-79.05,34.64-118.58c2.05-7.04,4.06-14.12,3.15-21.79c-4.2-1.43-7.6-0.17-10.98,1.52 c-10.98,5.5-21.88,11.19-33,16.41c-16.67,7.83-33.2,16.07-50.36,22.72c-14.05,5.45-22.59,14.75-26.37,28.58 c-3.13,11.45-5.78,23.04-8.29,34.64c-11.57,53.4-23.58,106.68-40.95,158.63C2834.93,1957.93,2834.57,1959.97,2833.84,1962.85z M2676.14,1435.41c0.18-3.81,0.98-7.52,0.41-11.02c-9.48-58.33-41.03-100.56-96-124.69c-28.5-12.51-57.97-11.87-86.89-0.71 c-20.4,7.87-33.11,22.8-37.65,44.05c-1.65,7.74-3.06,15.55-4.13,23.38c-3.65,26.75,3.85,48.9,27.2,64.89 c17.82,12.2,35.19,25.03,52.79,37.52c6.07,4.31,12.26,8.45,18.7,12.88C2588.23,1455.67,2631.53,1444.85,2676.14,1435.41z M2356.74,1111.38c0.34,0.58,0.68,1.16,1.02,1.74c3.18-0.27,6.37-0.49,9.55-0.81c32.4-3.3,64.34-1.53,95.14,9.62 c13.62,4.93,26.95,5.57,40.99,2.52c37.59-8.16,75.59-11.97,114.15-10.38c37.51,1.55,73.99,8.18,109.42,20.23 c9.33,3.17,18.17,7.74,27.31,11.51c6.27,2.58,12.47,5.6,20.57,5.55c-1.34-2.13-2.1-3.46-2.97-4.72 c-15.9-22.73-35.89-41.42-59.52-55.99c-75.13-46.33-156.42-60.11-242.97-42.09c-36.49,7.6-69.41,23.31-97.43,48.04 C2366.69,1101.28,2361.82,1106.44,2356.74,1111.38z M2443.93,1142.14c-1.41-1.11-1.93-1.77-2.6-2.01 c-14.76-5.25-30.02-8.42-45.68-7.61c-33.95,1.75-65.21,12.12-93.15,31.21c-37.42,25.55-61.92,60.95-77.44,102.49 c-7.93,21.22-8.85,43.32-3.75,65.52c8.35,36.35,27.01,65.74,59.69,85.65c2.21,1.35,4.54,2.51,7.68,4.22 c-0.32-2.91-0.48-4.71-0.72-6.49c-4.23-30.78-4.7-61.51,1.01-92.2c8.22-44.18,28.98-82.01,60.57-114 c25.22-25.54,54.5-45.93,86.49-62.54C2438.52,1145.07,2440.98,1143.72,2443.93,1142.14z M2582.14,1493.38 c7.68,0,14.33,0.26,20.95-0.04c34.8-1.61,69.6-3.31,104.39-5.12c5.34-0.28,10.7-0.97,15.94-1.98c23.43-4.52,45.09-13.29,64.67-26.85 c42.71-29.57,63.05-69.33,56.26-121.1c-3.44-26.24-15.59-47.94-36.51-64.82c-13.82-11.15-29.71-18.83-45.53-26.59 c-5.14-2.52-10.68-3.32-16.47,0.63c0.99,2.38,1.85,4.82,3,7.12c4.62,9.23,9.23,18.46,14.03,27.6c8.73,16.61,14.21,34.16,15.65,52.82 c1.53,19.73,2.81,39.48,4.24,59.21c0.14,1.94,0.55,3.86,0.83,5.79c4.93-4.21,8.37-8.8,11.68-13.49c3.35-4.76,5.5-10.42,10.6-14.88 c2.87,6.64,1.71,12.02-0.49,17.14c-15.31,35.66-43.1,55.47-81.47,61.49c-20.62,3.23-41.35,5.86-61.95,9.2 c-23.42,3.79-45.66,11.36-66.81,21.93C2590.17,1483.94,2585.37,1486.88,2582.14,1493.38z M2392.04,1046.05 c-7.22-7.09-15.63-11.15-24.57-13.73c-16.96-4.9-34.05-9.42-51.22-13.56c-13.74-3.31-26.31-0.12-36.32,9.82 c-6.96,6.91-13.71,14.22-19.31,22.2c-25.23,35.98-55.98,66.79-90.61,93.85c-20.57,16.07-42.26,30.76-63.11,46.5 c-9.75,7.36-18.77,15.68-27.99,23.71c-1.53,1.33-3.48,3.51-3.34,5.14c0.88,10.35,3.29,20.17,13.02,27.26 c21.92-21.26,43.6-42.09,65.03-63.16c13.3-13.08,26.63-26.09,42.14-36.67c17.07-11.65,35.66-19.6,56.62-20.5 c15.24-0.65,30.53-0.31,45.79-0.19c3.66,0.03,6.5-0.15,8.95-3.57c21.04-29.33,48.23-52.26,78.19-72.27 C2387.49,1049.45,2389.55,1047.85,2392.04,1046.05z M2846.02,1490.6c-0.41-0.45-0.81-0.9-1.22-1.35 c-17.1,3.05-34.19,6.14-51.29,9.15c-37.79,6.65-75.98,9.94-114.24,12.16c-41.74,2.42-83.55,3.74-125.28,6.24 c-37.98,2.28-75.9,5.48-113.84,8.34c-2.77,0.21-5.5,0.94-8.31,1.44c0.76,6.16,4.57,8.57,8.76,10.51 c39.33,18.22,80.7,27.98,124.19,29.23c44.35,1.27,87.58-5.78,130.35-16.41c43.76-10.88,85.63-27.19,127.48-43.51 c4.21-1.64,8.33-3.76,12.04-6.3C2838.72,1497.32,2842.26,1493.8,2846.02,1490.6z M2374.95,1719.28c-3.91-3.81-6.59-6.59-9.45-9.17 c-22.64-20.41-47.83-37.39-73.72-53.48c-28.1-17.47-56.01-35.24-84.02-52.87c-1.06-0.66-2.24-1.13-3.99-2.01 c0,2.28-0.13,3.82,0.02,5.34c3.31,32.89,9.69,65.25,17.97,97.24c0.57,2.2,2.81,4.28,4.79,5.75c2.09,1.55,4.76,2.39,7.23,3.39 c19.58,7.92,39.26,15.61,58.71,23.82c6.14,2.59,11.35,3.74,16.78-1.17c1.69-1.53,4.21-2.41,6.5-3c13.19-3.39,26.41-6.69,39.65-9.86 C2361.31,1721.87,2367.29,1720.84,2374.95,1719.28z M2349.72,1450.65c1.61,1.24,2.61,2.1,3.71,2.82 c22.01,14.58,43.97,29.23,66.11,43.6c2.46,1.6,5.99,2.32,9,2.28c16.35-0.25,32.7-0.6,49.02-1.46c12.7-0.67,25.37-2.15,38.05-3.27 c0.24-0.58,0.47-1.16,0.71-1.74c-52.16-35.39-96.84-78.01-131.53-131.96C2372.79,1391.61,2361.38,1420.81,2349.72,1450.65z M2395.12,1517.41c-0.26-1.29-0.19-1.94-0.48-2.26c-1.61-1.76-3.28-3.49-4.99-5.15c-15.78-15.31-33.48-27.98-53.31-37.78 c-20.59-10.17-41.29-20.14-61.56-30.9c-21.41-11.36-38.19-27.98-51.87-47.65c-14.55-20.92-22.12-44.4-25.71-69.28 c-1.16-8.05-2.1-16.12-3.18-24.44c-8.41,0.93-13.62,5.04-15.67,12.28c-3.52,12.44-7.6,24.85-9.55,37.56 c-4.73,30.86,5.23,56.74,29.91,76.75c3.31,2.68,6.7,5.3,10.26,7.65c8.91,5.88,17.87,11.69,26.93,17.34 c22.91,14.29,46.98,26.39,71.7,37.38c24.01,10.67,48.48,19.87,74.09,26C2386.01,1515.94,2390.45,1516.55,2395.12,1517.41z"></path> <path class="st0" d="M1880.54,1419.53c27.13-8.95,54-17.05,80.29-26.69c26.47-9.71,50.85-23.62,73.87-41.32 c2.52,3.23,4.99,5.94,6.93,8.97c8,12.5,16.24,24.88,23.67,37.72c23.92,41.32,50.1,81.23,76.52,121.02 c8.63,13,16.53,26.55,23.72,40.38c8.45,16.26,9.94,34.3,12,52.2c2.6,22.55,6.19,44.98,9.33,67.47c0.54,3.83,0.95,7.68,1.59,12.87 c-60.19-26.74-114.2-58.96-151.11-113.78c-4.07,4.68-3.17,8.56-1.44,12.63c6.18,14.54,15.09,27.34,25.7,39.04 c14.53,16.01,30.93,30.03,48.12,43.17c28.09,21.47,58.71,38.84,90.58,54.2c55.55,26.77,113.75,46.68,172.52,65.19 c49.56,15.62,99.59,29.56,150.22,41.4c6.24,1.46,12.44,3.32,18.42,5.59c21.29,8.08,36.79,22.35,45.99,42.98 c14.29,32.04,32.47,61.87,52.27,90.84c6.87,10.06,13.55,20.36,19.09,31.16c12.41,24.2,16.6,50.01,13.2,76.95 c-2.38,18.88-11.9,32.06-30.51,39.13c-48.48,18.42-98.46,24.76-150.08,19.92c-35.1-3.29-69.54-9.63-103.03-20.62 c-55.27-18.12-102.97-47.93-143.59-89.05c-31.91-32.3-55.03-70.09-72.64-111.29c-9.04-21.15-16.77-42.85-24.96-64.34 c-2.32-6.08-2.11-6.15,0.77-12.67c3.35,1.14,6.82,2.26,10.26,3.49c41.36,14.75,83,28.62,125.64,39.39 c55.59,14.04,111.89,22.78,169.45,21.22c17.4-0.47,34.76-2.45,52.12-3.95c6.94-0.6,8.65,0.14,9.76,6.92 c0.54,3.33,0.37,6.85-0.03,10.22c-3.79,32.41,7.47,58.64,33.54,78.57c6.75,5.16,14.07,9.72,21.54,13.81 c28.11,15.4,53.95,33.53,74.85,57.96c1.91,2.23,4.95,3.51,8.97,6.27c-0.45-3.64-0.46-5.35-0.89-6.95 c-3.5-13.04-9.95-24.66-19.44-34.22c-11.61-11.69-23.82-22.82-36.16-33.77c-4.94-4.39-10.88-7.68-16.4-11.43 c-1.76-1.2-3.63-2.26-5.45-3.38c-26.39-16.22-36.61-39.56-31.83-69.63c1.7-10.68,3.06-21.41,4.47-32.14 c0.27-2.07,0.24-4.23-0.01-6.31c-0.67-5.58-3.29-8.88-8.96-9.65c-4.14-0.56-8.64-0.39-12.68,0.61 c-53.45,13.31-107.31,13.24-161.34,4.73c-84.48-13.31-164.98-39.65-243.28-72.96c-39.65-16.87-78.83-34.73-116.17-56.22 c-9.72-5.6-19.24-11.54-28.73-17.52c-4.28-2.7-8.39-5.71-12.34-8.87c-24.26-19.43-36.47-44.38-35.4-75.37 c0.49-14.25,1.39-28.5,1.31-42.75c-0.27-45.15-9.61-88.58-27.12-130.25c-3.15-7.49-7.79-14.41-12.03-21.42 C1885.98,1439.66,1881.36,1430.02,1880.54,1419.53z"></path> <path class="st1" d="M1674.77,2374.04c1.03-11.37,1.51-21.36,2.91-31.24c5.3-37.42,14.14-74.12,23.7-110.67 c2.41-9.19,4.23-18.55,6.9-27.66c1.3-4.43-0.17-7.21-3.44-9.54c-2.81-2-5.86-3.69-8.84-5.47c-6.64-3.97-6.69-4.04-4.7-11.27 c9.53-34.55,23.51-67.36,40.44-98.95c8.75-16.33,18.31-32.26,27.58-48.32c4-6.93,3.94-7.91-1.78-13.56 c-2.08-2.05-4.18-4.09-6.09-6.29c-0.82-0.95-1.16-2.3-1.94-3.93c4.89-4.94,9.55-10.02,14.61-14.68 c28.49-26.26,58.92-50.1,93.25-68.54c17.38-9.34,35.61-17.16,53.61-25.32c8.71-3.95,10.23-7.16,5.89-15.8 c-1.28-2.54-2.55-5.09-4.22-8.43c5.94-3.2,11.16-6.35,16.66-8.92c26.14-12.2,53.89-19.18,82.22-24.16 c30.48-5.35,61.13-7.82,92.12-5.8c5.55,0.36,8.54,2.08,10.41,7.5c10.02,28.97,20.45,57.81,30.7,86.71c1.04,2.92,1.8,5.94,3.08,10.23 c-10.33-1.81-19.46-3.34-28.56-5.01c-30.05-5.51-60.09-11.07-90.13-16.59c-1.84-0.34-3.7-0.64-5.57-0.84 c-3.54-0.38-3.9,1.85-3.68,5.11c42.74,16.9,87.99,28.02,130.55,48.77c-24.39,23.54-54.08,38.82-80.05,59.2 c-56.29-23.98-114.39-37.08-175.48-35.16c-0.21,0.62-0.42,1.24-0.63,1.86c4.34,1.58,8.6,3.47,13.04,4.69 c21.68,5.93,43.53,11.26,65.06,17.63c13.57,4.02,26.81,9.22,39.99,14.41c9.97,3.93,19.02,9.47,26.19,18.44 c-2.35,1.91-4.33,3.62-6.41,5.2c-28.23,21.48-56.59,42.79-84.6,64.54c-5.57,4.32-10.93,5.33-17.71,4.78 c-29.66-2.39-59.34-4.7-89.05-6.26c-17.67-0.93-35.42-0.28-52.86,3.43c-2.88,0.61-5.71,1.45-8.53,2.27 c-0.75,0.22-1.42,0.74-1.67,2.52c7.36,1,14.69,2.69,22.07,2.9c36.86,1.05,73.08,7.02,109.28,13.25c1.29,0.22,2.54,0.65,4.77,1.23 c-1.71,1.97-2.83,3.57-4.25,4.85c-25.21,22.56-50.56,44.97-75.65,67.66c-19.75,17.87-38.84,36.42-56.01,56.79 c-2.56,3.04-5.05,6.15-7.93,9.65c1.15,1.68,2.25,3.29,4,5.85c69.24-57.05,140.15-110.99,214.63-163.12c0,8.02,0.25,14.53-0.04,21.01 c-1.05,23.05-6.1,45.47-11.15,67.91c-3.48,15.45-6.57,30.99-9.78,46.5c-0.42,2.03-0.52,4.13,0.49,6.83 c1.17-2.06,2.42-4.08,3.49-6.19c19.68-38.77,32.82-79.65,40.28-122.31c1.77-10.14,3.18-20.34,4.53-30.55 c0.38-2.83,1.33-4.84,3.78-6.51c29.54-20.16,59.02-40.4,88.53-60.6c0.41-0.28,0.99-0.32,2.16-0.67c2.86,6.5,3.09,13.57,3.88,20.41 c3.23,27.65,2.24,55.36,0.93,83.08c-0.97,20.52-1.71,41.06-2.55,61.59c0.61,0.17,1.22,0.34,1.83,0.5c1.03-2.52,2.17-5,3.06-7.57 c9.61-27.62,15.24-56.11,17.76-85.11c2.51-28.93,4.15-57.94,5.96-86.92c0.25-4,1.64-7.14,4.38-9.81 c10.17-9.95,22.65-16.54,35.81-24.39c2.49,10.41,5.06,19.74,6.92,29.21c6.09,31.09,11.92,62.24,17.86,93.36 c0.45,2.33,0.94,4.66,1.43,6.98c0.71,3.4,3.02,3.1,6.63,2.04c0-2.5,0-5.3,0-8.1c0-20.07-0.03-40.15,0.05-60.22 c0.01-2.47-1-5.33,2.1-7.09c3.24-1.84,5.71-0.15,8.08,1.55c6.71,4.83,13.6,9.47,19.93,14.75c15.12,12.62,29.97,25.56,44.95,38.39 c-6.43,37.51-55.25,115.7-89.68,143.38c-5.25-1.22-7.82-5.72-11.06-9.46c-3.28-3.77-6.67-7.45-10.47-11.67 c-7.67,8.05-14.78,15.53-21.91,22.99c-15.98,16.73-31.6,33.83-49.95,48.17c-9.24,7.22-18.77,14-29.63,18.94 c-9.68-5.6-9.06-18.14-18.28-24.81c-2.13,1.37-4.53,2.88-6.9,4.44c-33.6,21.98-68.46,41.69-106.62,54.98 c-15.88,5.53-32.31,9.57-48.6,13.86c-8.07,2.13-13.29-2.28-13.65-10.58c-0.09-2.08-0.01-4.17-0.01-6.59 c-5.22-4.18-11.19-3.91-17.37-2.57c-16.49,3.58-32.95,7.31-49.49,10.65c-40.52,8.17-81.4,13.57-122.78,15.03 c-2.64,0.09-5.25,0.98-7.9,1.16C1682.58,2374.2,1679.49,2374.04,1674.77,2374.04z"></path> <path class="st1" d="M2757.3,2076.12c0.63-0.96,1.53-2.54,2.62-3.97c18.86-24.69,37.78-49.34,56.56-74.09 c1.97-2.59,3.98-3.89,7.31-3.75c27.37,1.1,53.96-2.96,79.83-11.76c0.46-0.16,1.03,0.03,2.49,0.1c9.98,18.34,20.19,37.11,30.32,55.72 c-4.09,9.49-15.89,8.26-21,16.09c2.92,5.89,5.91,11.76,8.77,17.7c27.33,56.82,42.22,116.66,44.88,179.47 c0.28,6.61-1.25,8.38-8.03,9.02c-2.66,0.25-5.36,0.15-8.04,0.22c-4.39,0.11-6.41,2.14-7.33,6.6c-3.99,19.4-8.02,38.8-12.76,58.03 c-9,36.52-20.92,72.06-38.06,105.76c-4.21,8.28-5,8.57-14.39,7.16c-16.82-2.53-12.44-5.21-21.03,10.39 c-8.82,16.01-17.07,32.33-25.62,48.48c-17.51,33.07-36.64,65.14-60.31,94.39c-1.82,2.25-3.75,4.42-6.27,7.39 c-2.58-2.41-4.89-4.46-7.07-6.62c-45.69-45.27-86.47-94.56-124.02-146.51c-5.86-8.11-7.73-8.61-17.35-4.64 c-15.63,6.45-15.63,6.45-25.34-7.19c-26.44-37.14-44.57-78.15-58.26-121.22c-3.6-11.33-6.7-22.82-10.07-34.22 c-2.05-6.97-4.03-8.22-11-6.19c-3.57,1.04-6.84,3.03-10.35,4.29c-4.19,1.5-8.49,2.68-13.71,4.31 c-9.81-38.15-14.91-75.79-16.06-115.1c71.76,7.17,140.59,0.95,204.44-32.63c9.6,7.2,11.05,17.26,4.12,26.05 c-15.32,19.43-29.67,39.52-41.45,61.24c-17.15,31.65-29.67,64.9-35.01,102.2c1.7-2.19,2.59-3.16,3.27-4.26 c0.69-1.12,1.11-2.4,1.74-3.56c11.61-21.41,22.63-43.17,35.03-64.12c11.9-20.09,26.4-38.51,42.01-56.01c1.92-2.15,4-4.16,7.14-7.41 c24.16,101.47,42.88,202.64,57.21,304.77c4.73-8.54,6.31-17.81,6.28-27.05c-0.04-13.97-0.61-27.99-2.07-41.88 c-4.35-41.23-9.22-82.41-13.93-123.6c-1.2-10.49-2.71-20.95-3.83-31.45c-0.4-3.79-0.06-7.66-0.06-12.37 c12.9,3.5,23.95,7.92,34.68,13.29c22.4,11.2,41.94,26.48,61.71,41.44c5.2,3.93,10.39,7.87,15.59,11.81 c0.56-0.42,1.13-0.84,1.69-1.26c-2.04-4.74-3.4-9.93-6.29-14.1c-4.2-6.05-8.99-11.92-14.45-16.88 c-17.21-15.6-36.53-28.52-56.12-41.02c-12.83-8.18-25.62-16.42-38.56-24.42c-3.04-1.88-4.46-4.23-5.07-7.55 c-5.93-32.48-11.87-64.95-17.96-97.4c-0.77-4.13,0.19-7.03,3.51-9.67c4.78-3.8,8.8-10.26,14.03-11.32 c5.58-1.12,12.28,2.47,18.34,4.46c28.14,9.23,54.11,22.98,79.75,37.4c15.14,8.51,30.28,17.01,45.45,25.48 c2.26,1.26,4.63,2.32,7.1,3.55c2.51-6.43-0.27-10.44-4.48-13.76c-12.34-9.75-24.24-20.14-37.28-28.89 c-17.04-11.43-35.02-21.5-52.55-32.22c-4.54-2.78-8.89-5.86-13.43-8.64C2769.12,2082.9,2763.61,2079.8,2757.3,2076.12z"></path> <path class="st1" d="M3260.6,1779.42c-4.87-3.6-9.96-3.74-14.92-4.01c-16.5-0.9-32.64,1.72-48.6,5.47 c-39.38,9.27-76.55,24.11-111.82,43.59c-3.67,2.03-6.98,3.09-11.33,1.84c-21.46-6.13-42.05-14.27-61.65-24.85 c-0.91-0.49-1.71-1.2-3.15-2.22c1.58-7.37,2.79-14.9,4.84-22.21c3.71-13.22,8.14-26.24,11.84-39.46c2.7-9.64,8.86-16.03,17.57-20.52 c19.95-10.29,39.9-20.59,59.81-30.96c5.62-2.93,11.58-5.48,16.28-11.7c-5.41-1.04-10.14-0.87-14.57,0.29 c-11.63,3.05-23.21,6.35-34.68,9.95c-9.41,2.96-18.64,6.51-29.37,10.3c0.37-14.98,1.51-28.07,12.7-38.46 c8.37-7.78,16.81-15.65,24.04-24.43c7.72-9.38,14.05-19.87,21.75-30.97c8.78-0.43,18.77,1.72,28.68,3.61 c36.62,6.99,70.83,20.73,104.17,36.79c0.47,0.23,0.84,0.65,2,1.58c-0.73,2.57-1.47,5.54-2.41,8.45c-0.81,2.51-2.04,4.89-2.73,7.42 c-1.2,4.43-0.28,7.98,3.78,11.08c14.85,11.31,29.5,22.87,44.12,34.47c5.84,4.64,11.64,9.37,17.03,14.49 c22.18,21.09,44.91,41.69,62.73,66.75c1.54,2.16,3.03,4.36,4.47,6.58c0.56,0.87,0.92,1.88,1.33,2.75 c-3.02,9.65-14.92,12.51-17.37,23.15c36.98,43.2,70.03,89.61,100.42,139.12c-2.56,1.31-4.76,2.54-7.04,3.6 c-31.28,14.67-63.63,26.51-96.77,36.47c-36,10.82-72.62,18.61-109.95,23.01c-16.48,1.94-33.12,2.71-49.69,3.85 c-10.26,0.7-11.31,1.53-12.63,11.37c-0.28,2.08-0.55,4.2-1.16,6.2c-1.85,6.06-3.14,7.01-9.73,7.06c-28.05,0.24-55.59-4-82.97-9.42 c-12.35-2.45-24.66-5.13-36.98-7.73c-7.91-1.67-10.7-0.22-12.84,7.51c-1.12,4.04-1.41,8.3-2.17,12.45c-0.18,1-0.69,1.94-1.32,3.62 c-3.96-1.05-7.87-1.75-11.52-3.12c-13.53-5.07-27-10.28-40.42-15.64c-1.81-0.73-3.71-2.32-4.62-4.01 c-11.43-21.22-22.68-42.52-33.96-63.82c-0.23-0.43-0.13-1.02-0.18-1.56c0.22-0.45,0.33-1.06,0.7-1.35 c21.46-16.7,35.48-38.67,45.68-63.19c5.79-13.91,10.83-28.12,16.21-42.2c0.93-2.43,1.92-4.85,3.39-8.55c1.8,3.08,3.13,5.14,4.25,7.3 c12.14,23.55,24.62,46.92,39.66,68.85c12.05,17.57,25.46,34.01,41.69,48.07c1.99,1.73,4.03,3.4,7.24,4.54 c-0.71-1.64-1.3-3.34-2.13-4.92c-13.43-25.54-27.38-50.83-40.18-76.67c-8.7-17.54-14.9-36.15-19.89-56.57 c3.5,0.97,6.2,1.61,8.82,2.47c51.42,16.7,102.69,33.86,154.3,49.98c34.48,10.77,69.44,20.06,104.2,29.98 c2.26,0.65,4.6,1.01,7.38,1.6c0.85-2.2,1.56-4.02,2.54-6.55c-65.37-24.99-130.59-48.99-195.44-78.12c3.27-2.6,5.32-4.42,7.55-5.99 c26.65-18.81,56.14-31.91,87.33-41.37c15.62-4.74,31.51-8.6,47.27-12.85C3254.76,1780.96,3257.33,1780.29,3260.6,1779.42z"></path> <path class="st0" d="M2806.94,1155.28c9.38,0.06,16.95,2.71,23.98,6.41c10.63,5.59,20.99,11.69,31.27,17.88 c45.86,27.63,93.96,50.75,144.14,69.75c24.26,9.18,37.23,27.81,35.86,53.25c-0.72,13.37-3.53,26.63-5.37,39.94 c-2.09,15.12-1.82,30.15,3.76,44.53c4.1,10.57,3.45,20.65-0.71,30.8c-5.93,14.48-13.11,28.32-21.75,41.43 c-11.42,17.34-24.81,33.16-38.75,48.52c-43.87,48.32-90.96,93.29-142.36,133.94c-19.59,15.49-40.84,25.77-65.43,30.18 c-12.64,2.27-25.07,5.62-37.57,8.63c-6.27,1.51-12.49,2.61-19.92,0.96c1.68-2.07,2.72-3.79,4.17-5.06 c9.44-8.22,18.7-16.67,28.51-24.44c30.1-23.83,60.42-47.38,90.66-71.03c18.72-14.64,36.74-30.02,52.61-47.71 c17.48-19.48,30.8-41.19,37-66.73c4.22-17.4,4.21-37.44-0.38-53.67c-0.84,2.63-1.51,4.15-1.81,5.73 c-3.31,17.65-6.61,35.26-14.6,51.67c-6.79,13.93-15.23,26.63-26.05,37.84c-17.14,17.76-37.41,31.41-59.28,44.73 c-0.39-2.46-0.97-4.11-0.86-5.72c0.78-10.67,6.64-18.2,15.74-23.41c7.18-4.11,14.67-7.7,21.82-11.86 c10.56-6.14,17.74-14.9,21.51-26.61c1.52-4.74,0.13-7.55-3.27-10.22c-5.4-4.25-11.6-6.73-18.45-7.03 c-8.02-0.34-16.08-0.06-24.11-0.21c-3.38-0.06-6.76-0.52-11.77-0.94c3.19-4.58,5.51-7.98,7.91-11.32 c8.82-12.28,17.86-24.38,24.26-38.2c14.64-31.64,16.97-64.14,6.9-97.31c-4.88-16.06-7.61-32.34-8.8-48.99 c-1.61-22.68-9.27-43.24-22.86-61.64c-1.57-2.13-3.34-4.22-4.43-6.59C2821.35,1187.26,2814.34,1171.64,2806.94,1155.28z"></path> <path class="st0" d="M2531.38,1803.89c110.16-6.07,219.04-19.04,326.01-51.45c-0.37,4.35-0.26,7.72-1,10.9 c-4.49,19.28-9.14,38.53-13.8,57.77c-7.39,30.53-14.1,61.25-22.46,91.52c-8.33,30.16-21.38,58.59-38.02,85.26 c-16.82,26.97-37.67,50.64-62,71.32c-5.59,4.75-11.17,9.52-17.96,15.31c-0.56-4.13-1.06-6.62-1.22-9.14 c-0.8-12.38-0.76-24.85-2.41-37.12c-3.66-27.22-15.25-51.5-30.56-74.17c-16.03-23.75-32.11-47.47-44.83-73.17 c-3.05-6.16-5.86-12.45-8.74-18.69c-10.7-23.18-25.72-42.85-49.03-54.83C2554.8,1811.97,2543.18,1808.51,2531.38,1803.89z"></path> <path class="st0" d="M2271.82,1505.41c5.13-3.1,8.56-0.65,12.18,0.99c20.19,9.18,40.21,18.77,60.68,27.32 c17.57,7.34,36.02,11.95,55.14,13.87c4.11,0.41,8.56,1.84,11.98,4.08c28.3,18.6,60.02,27.66,93.11,33.01 c32.64,5.28,65.44,8.05,98.56,6.28c42.9-2.3,84.35-11.34,124.82-25.33c21.49-7.43,43.22-14.17,64.86-21.18 c2.18-0.71,4.47-1.1,7.7-1.88c-8.39,25.28-17.45,48.06-40.51,63.66c-35.44,23.97-67.32,52.35-97.28,82.75 c-4.07,4.13-8.33,6.82-14.38,7.62c-33.21,4.36-66.37,9.12-99.55,13.7c-17.52,2.42-35.08,4.52-52.55,7.27 c-4.7,0.74-8.68,0.12-12.08-2.56c-4.15-3.26-8.47-6.68-11.5-10.88c-20.42-28.21-45.92-51.57-72.21-74.18 c-13.53-11.64-27.36-22.95-41.21-34.23c-30.71-25.01-57.88-53.44-83.66-83.24C2274.16,1510.47,2273.18,1507.81,2271.82,1505.41z"></path> <path class="st0" d="M2938.8,1618.73c-6.03-1.44-11.21,0.81-16.3,3.07c-5.86,2.6-11.47,5.78-17.39,8.22 c-4.03,1.66-8.42,2.46-13.1,2.83c59.93-57.03,119.94-113.59,165.19-184.85c1.37,3.26,2.23,5.01,2.85,6.85 c6.92,20.27,13.6,40.6,16.98,61.82c3.02,18.92,3.32,37.75-0.18,56.71c-3.96,21.42-14.59,38.89-30.65,53.47 c-14.87,13.51-31.72,24.34-48.88,34.69c-49.23,29.68-101.82,51.79-157.23,67.59c-39.93,11.39-80.27,20.9-121.33,27.54 c-65.8,10.64-132.07,15.11-198.68,15.72c-39.72,0.36-79.39-0.42-119.01-3.28c-19.2-1.39-37.18-6.99-55.95-14.76 c8.26-3.89,15.93-5.49,23.7-5.91c19.27-1.03,38.57-1.89,57.86-2.26c37.81-0.72,75.6-1.55,113.14-6.81 c32.64-4.57,65.42-8.26,97.97-13.38c24.33-3.83,48.46-9.03,72.55-14.17c70.38-15.02,137.52-38.79,200.73-72.98 c7.28-3.94,14.42-8.14,21.61-12.25C2935.74,1624.83,2938.67,1622.99,2938.8,1618.73z"></path> <path class="st0" d="M2446.81,1716.41c-15.56,4.78-28.12,3.51-39.23-6.23c-9.21-8.08-18.2-16.42-27.67-24.19 c-33.49-27.46-69.61-51.23-107.41-72.46c-35.06-19.69-64.3-45.65-88.3-77.42c-17.94-23.75-33.72-48.87-48.89-74.45 c-15.81-26.66-33.01-52.53-49.66-78.71c-7.68-12.09-15.84-23.9-23.09-36.23c-3.57-6.08-5.8-12.99-8.2-19.67 c-1.71-4.75-0.92-9.07,3.05-13c9.83-9.73,19.12-19.99,28.97-29.7c30.35-29.88,60.82-59.63,91.33-89.35 c7.24-7.06,14.67-13.94,22.24-20.65c18.64-16.53,40.78-24.93,65.64-26.75c4.89-0.36,9.65-0.04,13.76,4.54 c-2.12,1.99-4.18,3.95-6.29,5.88c-33.07,30.18-57.72,65.82-71.99,108.11c-1.1,3.25-2.75,5.3-5.83,6.95 c-32.62,17.49-48.02,45.9-50.97,81.16c-3.46,41.44,15.35,73.06,48.06,97.27c18.87,13.97,35.61,29.79,48.42,49.25 c23.52,35.74,52.28,66.95,83.92,95.72c27,24.55,54.58,48.49,81.32,73.3c12.66,11.75,24.04,24.84,35.79,37.51 C2443.8,1709.48,2444.75,1712.6,2446.81,1716.41z"></path> <path class="st0" d="M2419.67,1365.61c-14.79-15.66-22.12-35.7-32.15-53.78c0.17-0.92,0.11-1.53,0.38-1.93 c25.29-36.84,56.07-68.03,96.31-89.15c24.89-13.06,51.56-20.19,79.73-22.73c22.12-1.99,43.9-0.9,65.56,3.32 c25.64,5.01,49.16,15.08,69.48,31.33c26.61,21.28,43.86,48.8,53.64,81.03c7.84,25.84,9.89,52.33,9.42,79.12 c-0.11,6.33-0.44,12.67-0.44,19c0,2.96-1.18,4.93-3.61,6.56c-11.6,7.8-24.82,11.13-38.38,13.22c-2.22,0.34-5.17-1.18-7.17-2.65 c-5.24-3.83-7.12-9.65-8.65-15.64c-5.79-22.68-14.22-44.43-27.13-64.04c-29.76-45.19-71.67-72.83-126.09-80.39 c-23.45-3.26-46.63,0.31-68.52,9.59c-28.8,12.22-44.95,34.86-52.86,63.93c-1.03,3.8-1.39,7.78-2.17,11.66 C2426.13,1358.52,2425.13,1362.94,2419.67,1365.61z"></path> <path class="st0" d="M3092.9,1452.6c-17.69-33.93-35.22-67.03-32.86-106.04c0.72-11.83,2.59-23.6,4.07-35.39 c1.57-12.53,0.22-24.75-3.56-36.76c-5.23-16.65-15.56-29.49-30.85-38.07c-7.64-4.29-15.88-7.64-24.06-10.91 c-33.78-13.5-67.89-26.29-99.56-44.36c-12.06-6.88-23.94-14.08-35.7-21.44c-17.75-11.1-36.01-21.01-56.86-25.23 c-5.24-1.06-10.61-1.48-15.87-2.42c-2.26-0.41-5.13-0.76-6.5-2.24c-10.45-11.32-20.59-22.91-30.81-34.44 c-0.32-0.36-0.36-0.97-0.78-2.2c16.75-18.75,33.75-37.68,57.33-49.33c10.58-5.23,21.71-5.56,32.93-2.74 c20.77,5.22,38.11,16.65,54.13,30.15c7.12,6,13.93,12.42,20.37,19.12c25.08,26.1,49.42,52.87,71.6,81.43 c42.76,55.05,93.6,101.6,151.51,140.8c7,4.74,12.86,10.27,15.93,18.32c1.04,2.72,1.06,4.83-0.77,7.29 c-26.07,35.05-47.47,72.83-67.29,111.54C3094.97,1450.38,3094.33,1450.91,3092.9,1452.6z"></path> <path class="st0" d="M2325.32,1429.52c-5.95-12.4-9.66-25.52-12.22-38.98c-6.3-33.15-2.17-65.22,10.96-96.2 c20.12-47.48,51.78-85.53,96.64-112.29c24.45-14.58,50.88-24.84,78.63-31.69c37.36-9.23,75.17-15.22,113.81-13.39 c42.27,2,83.84,8.03,122.91,25.21c21.36,9.39,41.83,20.29,58.84,36.64c14.24,13.69,25.53,29.15,31.96,47.83 c0.43,1.25,1.31,2.56,1.16,3.74c-0.27,2.18-1.15,4.28-1.78,6.42c-1.92-0.62-4.29-0.72-5.68-1.92 c-16.69-14.48-36.51-23.08-57.52-28.97c-11.02-3.09-22.48-4.98-33.88-6.38c-9.31-1.15-17.69-3.69-25.3-9.11 c-15.29-10.9-31.93-19.37-49.61-25.85c-29.45-10.8-59.88-13.95-91.01-10.64c-32.34,3.44-62.92,13.07-91.94,27.23 c-45.16,22.03-81.04,54.01-105.61,97.75c-2.29,4.08-3.45,8.02-3.13,12.75c1.11,16.29-1.21,32.32-6.93,47.52 c-8.91,23.72-18.83,47.08-28.33,70.59C2326.64,1429.68,2325.98,1429.6,2325.32,1429.52z"></path> <path class="st0" d="M2833.84,1962.85c0.72-2.89,1.09-4.92,1.74-6.86c17.36-51.95,29.38-105.23,40.95-158.63 c2.51-11.6,5.16-23.19,8.29-34.64c3.78-13.83,12.32-23.13,26.37-28.58c17.16-6.65,33.69-14.9,50.36-22.72 c11.12-5.22,22.01-10.91,33-16.41c3.38-1.69,6.78-2.95,10.98-1.52c0.92,7.68-1.1,14.76-3.15,21.79 c-11.52,39.54-23.13,79.04-34.64,118.58c-4.79,16.48-9.3,33.03-14.12,49.5c-13.84,47.24-60.2,81.43-109.18,80.56 C2841.08,1963.87,2837.73,1963.26,2833.84,1962.85z"></path> <path class="st0" d="M2676.14,1435.41c-44.61,9.44-87.91,20.26-125.56,46.3c-6.44-4.43-12.63-8.57-18.7-12.88 c-17.61-12.49-34.98-25.32-52.79-37.52c-23.35-15.99-30.86-38.14-27.2-64.89c1.07-7.84,2.47-15.64,4.13-23.38 c4.54-21.26,17.25-36.18,37.65-44.05c28.93-11.16,58.39-11.8,86.89,0.71c54.97,24.13,86.52,66.36,96,124.69 C2677.12,1427.89,2676.32,1431.6,2676.14,1435.41z M2572.71,1335.91c6.12,4.54,11.4,8.07,16.22,12.11 c5.28,4.43,10.95,8.75,15.02,14.16c9.31,12.4,11.08,26.25,4.16,40.34c-6.91,14.09-20.52,17.15-35.68,19.94 c1.59-2.95,2.59-4.71,3.5-6.51c2.5-4.95,5.42-9.76,7.36-14.92c7.61-20.3,2.01-37.26-16.81-48.34c-8.19-4.82-17.53-7.73-26.38-11.44 c-2.08-0.87-4.29-1.45-5.79-1.95c0.74-2.67,1.32-4.76,1.9-6.84c-2.22-0.36-4.7-1.51-6.63-0.93c-7.88,2.39-15.87,4.75-23.29,8.22 c-6.42,3-11.02,8.48-13.05,15.41c-4.4,14.97,1.29,27.99,8.68,40.56c0.5,0.84,2.38,1.52,3.38,1.28c0.99-0.24,2.24-1.65,2.38-2.68 c0.32-2.33,0.02-4.73-0.02-7.11c-0.23-17.3,6.08-31.76,18.93-43.5c34.21,24.04,39.91,59.51,32.72,79.52 c-1.4,0.16-2.95,0.42-4.51,0.49c-10.29,0.44-20.3-1.18-30.16-3.92c-4.35-1.21-8.64-1.83-13.49,1.23c7.2,6.02,14.4,10.45,22.23,13.92 c21.88,9.71,44.18,9.98,66.58,2.18c24.54-8.55,44.73-38.53,33.25-65.76c-3.44-8.16-8.25-16.09-13.9-22.96 C2608.73,1335.57,2588.5,1330.27,2572.71,1335.91z"></path> <path class="st0" d="M2356.74,1111.38c5.08-4.94,9.95-10.1,15.26-14.78c28.02-24.73,60.94-40.45,97.43-48.04 c86.55-18.02,167.84-4.24,242.97,42.09c23.63,14.57,43.62,33.27,59.52,55.99c0.88,1.25,1.63,2.58,2.97,4.72 c-8.1,0.05-14.31-2.97-20.57-5.55c-9.14-3.77-17.98-8.34-27.31-11.51c-35.43-12.05-71.91-18.68-109.42-20.23 c-38.57-1.59-76.57,2.22-114.15,10.38c-14.04,3.05-27.37,2.41-40.99-2.52c-30.8-11.15-62.74-12.92-95.14-9.62 c-3.18,0.32-6.36,0.55-9.55,0.81C2357.42,1112.54,2357.08,1111.96,2356.74,1111.38z"></path> <path class="st0" d="M2443.93,1142.14c-2.95,1.58-5.41,2.93-7.9,4.22c-31.99,16.61-61.27,36.99-86.49,62.54 c-31.59,32-52.35,69.82-60.57,114c-5.71,30.69-5.23,61.42-1.01,92.2c0.24,1.78,0.4,3.58,0.72,6.49c-3.13-1.72-5.46-2.88-7.68-4.22 c-32.68-19.91-51.34-49.29-59.69-85.65c-5.1-22.2-4.18-44.3,3.75-65.52c15.52-41.54,40.02-76.94,77.44-102.49 c27.94-19.08,59.2-29.46,93.15-31.21c15.65-0.8,30.92,2.37,45.68,7.61C2442,1140.37,2442.52,1141.03,2443.93,1142.14z"></path> <path class="st0" d="M2582.14,1493.38c3.23-6.5,8.03-9.45,13.01-11.93c21.15-10.57,43.39-18.14,66.81-21.93 c20.61-3.34,41.33-5.96,61.95-9.2c38.37-6.02,66.16-25.82,81.47-61.49c2.2-5.12,3.36-10.5,0.49-17.14 c-5.1,4.46-7.25,10.12-10.6,14.88c-3.3,4.69-6.74,9.28-11.68,13.49c-0.28-1.93-0.69-3.85-0.83-5.79 c-1.43-19.74-2.71-39.48-4.24-59.21c-1.44-18.67-6.92-36.21-15.65-52.82c-4.8-9.14-9.41-18.37-14.03-27.6 c-1.15-2.3-2.01-4.74-3-7.12c5.79-3.95,11.34-3.15,16.47-0.63c15.82,7.76,31.7,15.44,45.53,26.59 c20.92,16.88,33.07,38.58,36.51,64.82c6.79,51.77-13.55,91.52-56.26,121.1c-19.58,13.55-41.23,22.33-64.67,26.85 c-5.25,1.01-10.61,1.7-15.94,1.98c-34.79,1.81-69.59,3.51-104.39,5.12C2596.46,1493.64,2589.81,1493.38,2582.14,1493.38z"></path> <path class="st0" d="M2392.04,1046.05c-2.49,1.8-4.55,3.4-6.72,4.85c-29.96,20.01-57.15,42.94-78.19,72.27 c-2.45,3.41-5.29,3.6-8.95,3.57c-15.27-0.12-30.55-0.47-45.79,0.19c-20.96,0.9-39.55,8.85-56.62,20.5 c-15.52,10.59-28.84,23.6-42.14,36.67c-21.43,21.07-43.11,41.89-65.03,63.16c-9.73-7.08-12.14-16.91-13.02-27.26 c-0.14-1.63,1.82-3.81,3.34-5.14c9.22-8.03,18.24-16.35,27.99-23.71c20.85-15.74,42.54-30.43,63.11-46.5 c34.63-27.05,65.37-57.87,90.61-93.85c5.6-7.98,12.35-15.3,19.31-22.2c10.01-9.94,22.58-13.13,36.32-9.82 c17.17,4.14,34.26,8.65,51.22,13.56C2376.41,1034.9,2384.82,1038.96,2392.04,1046.05z"></path> <path class="st0" d="M2846.02,1490.6c-3.77,3.2-7.31,6.72-11.37,9.5c-3.71,2.54-7.83,4.66-12.04,6.3 c-41.85,16.32-83.71,32.63-127.48,43.51c-42.78,10.63-86,17.69-130.35,16.41c-43.49-1.25-84.85-11.01-124.19-29.23 c-4.2-1.94-8-4.35-8.76-10.51c2.81-0.5,5.54-1.23,8.31-1.44c37.94-2.86,75.86-6.07,113.84-8.34c41.73-2.5,83.54-3.83,125.28-6.24 c38.26-2.21,76.45-5.51,114.24-12.16c17.1-3.01,34.19-6.1,51.29-9.15C2845.21,1489.7,2845.62,1490.15,2846.02,1490.6z"></path> <path class="st0" d="M2374.95,1719.28c-7.66,1.55-13.64,2.59-19.53,4c-13.25,3.17-26.47,6.46-39.65,9.86c-2.29,0.59-4.82,1.47-6.5,3 c-5.42,4.91-10.64,3.76-16.78,1.17c-19.45-8.21-39.13-15.9-58.71-23.82c-2.48-1-5.14-1.84-7.23-3.39c-1.98-1.47-4.22-3.55-4.79-5.75 c-8.28-31.99-14.66-64.35-17.97-97.24c-0.15-1.52-0.02-3.06-0.02-5.34c1.75,0.87,2.93,1.34,3.99,2.01 c28.01,17.62,55.92,35.4,84.02,52.87c25.89,16.09,51.08,33.07,73.72,53.48C2368.36,1712.69,2371.04,1715.47,2374.95,1719.28z"></path> <path class="st0" d="M2349.72,1450.65c11.66-29.84,23.07-59.04,35.06-89.72c34.7,53.95,79.37,96.57,131.53,131.96 c-0.24,0.58-0.47,1.16-0.71,1.74c-12.68,1.12-25.34,2.59-38.05,3.27c-16.32,0.86-32.68,1.21-49.02,1.46c-3.01,0.05-6.54-0.68-9-2.28 c-22.14-14.38-44.11-29.02-66.11-43.6C2352.33,1452.74,2351.33,1451.88,2349.72,1450.65z"></path> <path class="st0" d="M2395.12,1517.41c-4.67-0.86-9.11-1.46-13.44-2.5c-25.61-6.13-50.08-15.33-74.09-26 c-24.72-10.99-48.79-23.09-71.7-37.38c-9.06-5.65-18.02-11.46-26.93-17.34c-3.56-2.35-6.95-4.96-10.26-7.65 c-24.68-20.01-34.64-45.89-29.91-76.75c1.95-12.71,6.03-25.12,9.55-37.56c2.05-7.24,7.26-11.35,15.67-12.28 c1.08,8.32,2.02,16.4,3.18,24.44c3.58,24.88,11.16,48.35,25.71,69.28c13.68,19.67,30.46,36.28,51.87,47.65 c20.27,10.76,40.97,20.73,61.56,30.9c19.84,9.79,37.53,22.47,53.31,37.78c1.72,1.67,3.38,3.39,4.99,5.15 C2394.93,1515.47,2394.86,1516.11,2395.12,1517.41z"></path> <path d="M2572.71,1335.91c15.8-5.65,36.03-0.34,46.59,12.51c5.65,6.87,10.46,14.8,13.9,22.96c11.48,27.23-8.71,57.21-33.25,65.76 c-22.4,7.8-44.7,7.53-66.58-2.18c-7.82-3.47-15.03-7.9-22.23-13.92c4.85-3.06,9.14-2.44,13.49-1.23c9.86,2.74,19.88,4.36,30.16,3.92 c1.56-0.07,3.11-0.33,4.51-0.49c7.19-20.01,1.48-55.48-32.72-79.52c-12.85,11.73-19.17,26.19-18.93,43.5 c0.03,2.37,0.34,4.78,0.02,7.11c-0.14,1.03-1.39,2.44-2.38,2.68c-0.99,0.24-2.88-0.44-3.38-1.28c-7.39-12.56-13.08-25.58-8.68-40.56 c2.04-6.93,6.64-12.41,13.05-15.41c7.42-3.47,15.41-5.83,23.29-8.22c1.93-0.59,4.4,0.57,6.63,0.93c-0.58,2.09-1.16,4.17-1.9,6.84 c1.5,0.5,3.71,1.08,5.79,1.95c8.85,3.71,18.2,6.62,26.38,11.44c18.82,11.08,24.42,28.04,16.81,48.34 c-1.94,5.16-4.86,9.97-7.36,14.92c-0.91,1.8-1.91,3.56-3.5,6.51c15.16-2.79,28.77-5.85,35.68-19.94c6.91-14.1,5.15-27.95-4.16-40.34 c-4.06-5.41-9.74-9.73-15.02-14.16C2584.1,1343.98,2578.83,1340.45,2572.71,1335.91z"></path> </svg> 